<?xml version="1.0" ?><svg style="enable-background:new 0 0 48 48;" version="1.1" viewBox="0 0 48 48" xml:space="preserve" xmlns="http://www.w3.org/2000/svg" xmlns:xlink="http://www.w3.org/1999/xlink"><g id="Padding__x26__Artboard"/><g id="Icons"><path d="M39.34595,22.99431l-4.07654-4.07678l-0.00012-0.00037L25.44752,9.0949   c-0.0957-0.09546-0.20074-0.17896-0.31281-0.25055c-0.56018-0.35791-1.29553-0.4176-1.91431-0.17859   c-0.24744,0.0954-0.47614,0.23846-0.66742,0.42914c0,0-0.00012,0.00061-0.00037,0.00085L22.5525,9.09587L8.66529,22.99236   c-0.38916,0.38379-0.60449,0.89453-0.60596,1.43945c-0.00195,0.54785,0.2124,1.06641,0.604,1.45703   c0.39648,0.39746,0.91943,0.5957,1.44385,0.5957c0.52393,0,1.04932-0.19824,1.45166-0.5957l1.61273-1.61273l2.38824,14.90766   c0.02734,0.16992,0.17383,0.29395,0.3457,0.29395H32.094c0.17188,0,0.31836-0.12402,0.3457-0.29395l2.38873-14.9173   l1.62201,1.62238c0.39648,0.39746,0.91895,0.5957,1.44336,0.5957s1.05078-0.19922,1.45361-0.59668   C40.13892,25.08513,40.13844,23.78728,39.34595,22.99431z M15.95826,20.0197l-0.66553,0.76074   c-0.06885,0.0791-0.16602,0.11914-0.26318,0.11914c-0.08203,0-0.16406-0.02832-0.23047-0.08594   c-0.14551-0.12793-0.16016-0.34863-0.03271-0.49414l0.66553-0.76074c0.12744-0.14551,0.34912-0.15918,0.49365-0.0332   C16.07105,19.65349,16.0857,19.87419,15.95826,20.0197z M16.43775,18.57341l5.62061-5.62012   c0.13672-0.13672,0.3584-0.13672,0.49512,0s0.13672,0.35742,0,0.49414l-5.62061,5.62012   c-0.06836,0.06836-0.1582,0.10254-0.24756,0.10254s-0.1792-0.03418-0.24756-0.10254   C16.30103,18.93083,16.30103,18.71013,16.43775,18.57341z M22.65845,33.63689c0-0.74023,0.60303-1.34277,1.34375-1.34277   s1.34326,0.60254,1.34326,1.34277s-0.60254,1.34277-1.34326,1.34277S22.65845,34.37712,22.65845,33.63689z M24.0022,29.90349   c-2.22754,0-4.03955-1.81152-4.03955-4.03906s1.81201-4.03906,4.03955-4.03906s4.03955,1.81152,4.03955,4.03906   S26.22974,29.90349,24.0022,29.90349z" style="fill:#303030;"/></g></svg>